<svg width="74" height="74" viewBox="0 0 74 74" fill="none" xmlns="http://www.w3.org/2000/svg">
<path d="M65 37C65 52.464 52.464 65 37 65C21.536 65 9 52.464 9 37C9 21.536 21.536 9 37 9C52.464 9 65 21.536 65 37Z" fill="black"/>
<path d="M37 48.2542L48.2542 37L37 25.7459L33.7625 28.9834L39.4667 34.6875H25.4375V39.3125H39.4667L33.7625 45.0167L37 48.2542ZM37 67.8334C32.7861 67.8334 28.8035 67.024 25.0521 65.4052C21.3007 63.7865 18.0246 61.5768 15.2239 58.7761C12.4233 55.9754 10.2135 52.6993 8.59478 48.9479C6.97603 45.1965 6.16666 41.2139 6.16666 37C6.16666 32.7347 6.97603 28.7264 8.59478 24.975C10.2135 21.2236 12.4233 17.9604 15.2239 15.1854C18.0246 12.4104 21.3007 10.2136 25.0521 8.59481C28.8035 6.97606 32.7861 6.16669 37 6.16669C41.2653 6.16669 45.2736 6.97606 49.025 8.59481C52.7764 10.2136 56.0396 12.4104 58.8146 15.1854C61.5896 17.9604 63.7864 21.2236 65.4052 24.975C67.0239 28.7264 67.8333 32.7347 67.8333 37C67.8333 41.2139 67.0239 45.1965 65.4052 48.9479C63.7864 52.6993 61.5896 55.9754 58.8146 58.7761C56.0396 61.5768 52.7764 63.7865 49.025 65.4052C45.2736 67.024 41.2653 67.8334 37 67.8334ZM37 63.2084C44.2972 63.2084 50.4896 60.6518 55.5771 55.5386C60.6646 50.4254 63.2083 44.2459 63.2083 37C63.2083 29.7028 60.6646 23.5104 55.5771 18.4229C50.4896 13.3354 44.2972 10.7917 37 10.7917C29.7542 10.7917 23.5746 13.3354 18.4614 18.4229C13.3483 23.5104 10.7917 29.7028 10.7917 37C10.7917 44.2459 13.3483 50.4254 18.4614 55.5386C23.5746 60.6518 29.7542 63.2084 37 63.2084Z" fill="white"/>
</svg>
