<svg width="65" height="65" viewBox="0 0 65 65" fill="none" xmlns="http://www.w3.org/2000/svg">
<path d="M46.0417 62.2917C50.5556 62.2917 54.3924 60.7118 57.5521 57.5521C60.7118 54.3924 62.2917 50.5556 62.2917 46.0417H58.2292C58.2292 49.4271 57.0443 52.3047 54.6745 54.6745C52.3047 57.0443 49.4271 58.2292 46.0417 58.2292V62.2917ZM2.70833 18.9583H6.77083C6.77083 15.5729 7.95573 12.6953 10.3255 10.3255C12.6953 7.95574 15.5729 6.77084 18.9583 6.77084V2.70834C14.4444 2.70834 10.6076 4.2882 7.44792 7.44793C4.28819 10.6076 2.70833 14.4445 2.70833 18.9583ZM9.54687 55.4531C5.1684 51.0747 2.97917 45.816 2.97917 39.6771C2.97917 33.5382 5.1684 28.2795 9.54687 23.9011L19.5677 13.8125C20.7413 12.6389 22.1745 12.0521 23.8672 12.0521C25.5599 12.0521 26.9931 12.6389 28.1667 13.8125C28.3472 13.9479 28.5503 14.1736 28.776 14.4896L29.4531 15.4375L37.3073 7.58334C38.4809 6.40973 39.9141 5.82293 41.6068 5.82293C43.2995 5.82293 44.7326 6.40973 45.9062 7.58334C46.1771 7.89932 46.4141 8.21529 46.6172 8.53126C46.8203 8.84723 46.967 9.11807 47.0573 9.34376C48.1858 8.21529 49.5738 7.67362 51.2214 7.71876C52.8689 7.7639 54.2795 8.37327 55.4531 9.54689C56.3559 10.4497 56.8976 11.5668 57.0781 12.8984C57.2587 14.23 57.0556 15.5504 56.4688 16.8594C56.8299 16.9948 57.1684 17.1754 57.4844 17.4011C57.8003 17.6267 58.0937 17.875 58.3646 18.1458C59.5382 19.3195 60.125 20.7526 60.125 22.4453C60.125 24.138 59.5382 25.5712 58.3646 26.7448L56.6719 28.4375C56.9878 28.5729 57.2925 28.7535 57.5859 28.9792C57.8793 29.2049 58.1389 29.4306 58.3646 29.6563C59.5382 30.8299 60.1363 32.263 60.1589 33.9557C60.1814 35.6484 59.5833 37.0816 58.3646 38.2552L41.099 55.4531C36.7205 59.8316 31.4618 62.0208 25.3229 62.0208C19.184 62.0208 13.9253 59.8316 9.54687 55.4531ZM12.3906 52.6094C14.1962 54.4149 16.2161 55.7578 18.4505 56.638C20.6849 57.5182 22.9757 57.9583 25.3229 57.9583C27.6701 57.9583 29.9609 57.5182 32.1953 56.638C34.4297 55.7578 36.4496 54.4149 38.2552 52.6094L55.4531 35.3438C55.8594 34.9375 56.0625 34.4523 56.0625 33.888C56.0625 33.3238 55.8594 32.8611 55.4531 32.5C55.0469 32.0938 54.5729 31.8906 54.0312 31.8906C53.4896 31.8906 53.0156 32.0938 52.6094 32.5L43.0625 42.0469L40.151 39.2031L55.4531 23.9011C55.8594 23.4948 56.0625 23.0096 56.0625 22.4453C56.0625 21.8811 55.8594 21.3958 55.4531 20.9896C55.0469 20.5833 54.5729 20.3802 54.0312 20.3802C53.4896 20.3802 53.0156 20.5833 52.6094 20.9896L39.2031 34.3958L36.3594 31.5521L52.6094 15.2344C53.0156 14.8281 53.2075 14.3429 53.1849 13.7787C53.1623 13.2144 52.9705 12.7517 52.6094 12.3906C52.2031 11.9844 51.7292 11.7813 51.1875 11.7813C50.6458 11.7813 50.1719 11.9844 49.7656 12.3906L33.4479 28.6406L30.6042 25.7969L43.0625 13.3386C43.4687 12.9323 43.6606 12.4471 43.638 11.8828C43.6154 11.3186 43.4236 10.8559 43.0625 10.4948C42.6562 10.0886 42.171 9.88543 41.6068 9.88543C41.0425 9.88543 40.5573 10.0886 40.151 10.4948L22.276 28.3698C23.224 30.717 23.5174 33.1094 23.1562 35.5469C22.7951 37.9844 21.7569 40.1511 20.0417 42.0469L17.1979 39.2031C18.6424 37.533 19.3646 35.6146 19.3646 33.4479C19.3646 31.2813 18.6424 29.3629 17.1979 27.6927L25.3229 19.5677C25.7292 19.1615 25.921 18.6762 25.8984 18.112C25.8759 17.5478 25.684 17.0851 25.3229 16.724C24.9167 16.3177 24.4427 16.1146 23.901 16.1146C23.3594 16.1146 22.8854 16.3177 22.4792 16.724L12.3906 26.7448C10.5851 28.5504 9.24219 30.5703 8.36198 32.8047C7.48177 35.0391 7.04167 37.3299 7.04167 39.6771C7.04167 42.0243 7.48177 44.3151 8.36198 46.5495C9.24219 48.7839 10.5851 50.8038 12.3906 52.6094Z" fill="black"/>
</svg>
