<svg width="408" height="84" viewBox="0 0 408 84" fill="none" xmlns="http://www.w3.org/2000/svg">
<path d="M133.312 60.52C131.093 60.52 129.013 60.3467 127.072 60C125.165 59.688 123.519 59.22 122.132 58.596V51.472C123.657 52.1307 125.339 52.668 127.176 53.084C129.048 53.5 130.816 53.708 132.48 53.708C134.56 53.708 136.103 53.5173 137.108 53.136C138.148 52.7547 138.668 51.9227 138.668 50.64C138.668 49.7733 138.408 49.08 137.888 48.56C137.403 48.04 136.588 47.5893 135.444 47.208C134.335 46.792 132.809 46.3067 130.868 45.752C128.58 45.0587 126.76 44.296 125.408 43.464C124.056 42.5973 123.085 41.5573 122.496 40.344C121.907 39.1307 121.612 37.64 121.612 35.872C121.612 32.6827 122.756 30.2387 125.044 28.54C127.332 26.8413 130.712 25.992 135.184 25.992C137.125 25.992 139.015 26.148 140.852 26.46C142.689 26.7373 144.18 27.0667 145.324 27.448V34.624C143.833 34.0347 142.325 33.6013 140.8 33.324C139.309 33.0467 137.853 32.908 136.432 32.908C134.56 32.908 133.035 33.0813 131.856 33.428C130.712 33.7747 130.14 34.572 130.14 35.82C130.14 36.548 130.348 37.1373 130.764 37.588C131.18 38.004 131.891 38.3853 132.896 38.732C133.936 39.0787 135.34 39.4947 137.108 39.98C139.847 40.708 141.944 41.592 143.4 42.632C144.856 43.6373 145.861 44.816 146.416 46.168C146.971 47.4853 147.248 48.976 147.248 50.64C147.248 53.5867 146.104 55.9787 143.816 57.816C141.528 59.6187 138.027 60.52 133.312 60.52ZM154.096 60V26.512H170.58C173.249 26.512 175.45 27.0493 177.184 28.124C178.917 29.164 180.2 30.5853 181.032 32.388C181.898 34.1907 182.332 36.2187 182.332 38.472C182.332 40.76 181.846 42.788 180.876 44.556C179.905 46.324 178.518 47.7107 176.716 48.716C174.948 49.6867 172.833 50.172 170.372 50.172H162.468V60H154.096ZM162.468 43.724H168.5C170.268 43.724 171.585 43.2387 172.452 42.268C173.353 41.2973 173.804 40.0147 173.804 38.42C173.804 36.6867 173.388 35.352 172.556 34.416C171.758 33.4453 170.493 32.96 168.76 32.96H162.468V43.724ZM203.883 60.52C198.44 60.52 194.298 59.1333 191.455 56.36C188.612 53.5867 187.191 49.2707 187.191 43.412C187.191 37.2067 188.612 32.752 191.455 30.048C194.298 27.344 198.44 25.992 203.883 25.992C209.326 25.992 213.468 27.344 216.311 30.048C219.154 32.752 220.575 37.2067 220.575 43.412C220.575 49.2707 219.154 53.5867 216.311 56.36C213.468 59.1333 209.326 60.52 203.883 60.52ZM203.883 53.396C206.691 53.396 208.736 52.5987 210.019 51.004C211.336 49.3747 211.995 46.844 211.995 43.412C211.995 39.668 211.336 37.0333 210.019 35.508C208.736 33.948 206.691 33.168 203.883 33.168C201.04 33.168 198.96 33.948 197.643 35.508C196.36 37.0333 195.719 39.668 195.719 43.412C195.719 46.844 196.36 49.3747 197.643 51.004C198.96 52.5987 201.04 53.396 203.883 53.396ZM227.444 60V26.512H244.188C248.14 26.512 251.052 27.552 252.924 29.632C254.796 31.712 255.732 34.5027 255.732 38.004C255.732 40.2573 255.16 42.2333 254.016 43.932C252.872 45.6307 251.312 46.896 249.336 47.728C249.822 48.1093 250.203 48.5427 250.48 49.028C250.792 49.4787 251.122 50.12 251.468 50.952L255.42 60H246.684L242.94 51.472C242.628 50.744 242.23 50.224 241.744 49.912C241.259 49.5653 240.566 49.392 239.664 49.392H235.816V60H227.444ZM235.816 42.944H242.004C243.634 42.944 244.899 42.5453 245.8 41.748C246.736 40.916 247.204 39.668 247.204 38.004C247.204 34.6413 245.592 32.96 242.368 32.96H235.816V42.944ZM270.343 60V32.96H260.515V26.512H288.543V32.96H278.715V60H270.343ZM294.902 60V26.512H319.602V32.96H303.274V39.98H317.678V46.532H303.274V53.552H319.602V60H294.902ZM326.193 60V26.512H334.565V53.552H350.373V60H326.193ZM356.215 60V26.512H364.587V60H356.215ZM371.435 60L384.227 26.512H393.275L406.067 60H397.331L394.315 52.408H383.135L380.171 60H371.435ZM384.279 46.22H393.171L388.699 34.572L384.279 46.22Z" fill="black"/>
<circle cx="42" cy="42" r="42" fill="black"/>
<path d="M40.592 63.57C38.16 63.57 35.88 63.38 33.752 63C31.662 62.658 29.857 62.145 28.337 61.461V53.652C30.009 54.374 31.852 54.963 33.866 55.419C35.918 55.875 37.856 56.103 39.68 56.103C41.96 56.103 43.651 55.894 44.753 55.476C45.893 55.058 46.463 54.146 46.463 52.74C46.463 51.79 46.178 51.03 45.608 50.46C45.076 49.89 44.183 49.396 42.929 48.978C41.713 48.522 40.041 47.99 37.913 47.382C35.405 46.622 33.41 45.786 31.928 44.874C30.446 43.924 29.382 42.784 28.736 41.454C28.09 40.124 27.767 38.49 27.767 36.552C27.767 33.056 29.021 30.377 31.529 28.515C34.037 26.653 37.742 25.722 42.644 25.722C44.772 25.722 46.843 25.893 48.857 26.235C50.871 26.539 52.505 26.9 53.759 27.318V35.184C52.125 34.538 50.472 34.063 48.8 33.759C47.166 33.455 45.57 33.303 44.012 33.303C41.96 33.303 40.288 33.493 38.996 33.873C37.742 34.253 37.115 35.127 37.115 36.495C37.115 37.293 37.343 37.939 37.799 38.433C38.255 38.889 39.034 39.307 40.136 39.687C41.276 40.067 42.815 40.523 44.753 41.055C47.755 41.853 50.054 42.822 51.65 43.962C53.246 45.064 54.348 46.356 54.956 47.838C55.564 49.282 55.868 50.916 55.868 52.74C55.868 55.97 54.614 58.592 52.106 60.606C49.598 62.582 45.76 63.57 40.592 63.57Z" fill="white"/>
</svg>
